# xmcd
#
# Track frame offsets:
# 150
# 17124
# 32263
# 48983
# 64658
# 81876
# 93463
# 104502
# 116991
# 136603
# 152762
# 168696
# 187772
# 201449
# 214345
#
# Disc length: 3103 seconds
#
#
# Revision: 0
# Processed by: cddbd v1.5.1PL0 Copyright (c) Steve Scherf et al.
# Submitted via: FreeRIP 2.80 
#
DISCID=cc0c1d0f
DTITLE=Dario Gómez - El rey del despecho. Internacional
DYEAR=1900
DGENRE=Popular
TTITLE0=Si negabas que buscabas
TTITLE1=Tiranías
TTITLE2=Eres todo en mi vida
TTITLE3=Lo que va a ser para uno
TTITLE4=El Rey del despecho
TTITLE5=Por las calles de amor
TTITLE6=El derecho de nacer
TTITLE7=Hasta aquí llegaste
TTITLE8=Nueve años de soledad
TTITLE9=Aquí sobro Yo
TTITLE10=Sin amor también se vive
TTITLE11=Voy a vengarme de El
TTITLE12=Torcida
TTITLE13=El hijo del amor
TTITLE14=El caso de dos mujeres
EXTD=
EXTT0=
EXTT1=
EXTT2=
EXTT3=
EXTT4=
EXTT5=
EXTT6=
EXTT7=
EXTT8=
EXTT9=
EXTT10=
EXTT11=
EXTT12=
EXTT13=
EXTT14=
PLAYORDER=
